<svg xmlns="http://www.w3.org/2000/svg" viewBox="0 0 1440 320"><path fill="#2f80ed" fill-opacity="1" d="M0,256L34.3,229.3C68.6,203,137,149,206,149.3C274.3,149,343,203,411,218.7C480,235,549,213,617,218.7C685.7,224,754,256,823,250.7C891.4,245,960,203,1029,208C1097.1,213,1166,267,1234,261.3C1302.9,256,1371,192,1406,160L1440,128L1440,320L1405.7,320C1371.4,320,1303,320,1234,320C1165.7,320,1097,320,1029,320C960,320,891,320,823,320C754.3,320,686,320,617,320C548.6,320,480,320,411,320C342.9,320,274,320,206,320C137.1,320,69,320,34,320L0,320Z"></path></svg>